<svg xmlns="http://www.w3.org/2000/svg" width="64" height="64"><path d="M15.763 38.922c-1.064-.882-1.325-1.499-1.348-3.174-.037-2.776 1.526-5.152 5.68-8.63 5.332-4.467 6.473-8.565 3.271-11.745-1.188-1.18-1.764-1.373-4.148-1.387-3.415-.021-4.875.96-6.753 4.54-1.675 3.192-3.052 4.18-5.232 3.756C1.48 21.163 4.32 12.167 11.651 8.291c1.67-.882 3.095-1.17 6.451-1.304C25.632 6.69 30.385 9 32.97 14.216c1.145 2.311 1.302 3.119 1.16 5.94-.21 4.178-1.5 6.169-6.953 10.74-2.831 2.372-4.277 3.976-4.988 5.529-1.696 3.706-3.924 4.572-6.425 2.497zM14.51 51.234c-2.06-2.286-2.156-4.89-.259-7.013 2.733-3.057 7.616-1.594 8.373 2.509.875 4.745-4.972 7.99-8.115 4.504z" fill="#fff"/><path d="M62.925 31.127a29.857 29.694 0 11-59.715 0 29.857 29.694 0 1159.715 0z" fill="#00f"/><path d="M29.192 39.791c-1.064-.882-1.325-1.498-1.348-3.173-.037-2.777 1.526-5.153 5.68-8.631 5.332-4.467 6.473-8.565 3.271-11.745-1.187-1.18-1.764-1.373-4.148-1.387-3.415-.02-4.875.96-6.753 4.54-1.675 3.192-3.052 4.18-5.232 3.757-5.754-1.12-2.914-10.116 4.418-13.992 1.67-.882 3.096-1.17 6.451-1.303 7.53-.3 12.283 2.012 14.867 7.228 1.145 2.311 1.302 3.119 1.16 5.941-.21 4.178-1.5 6.168-6.953 10.739-2.831 2.373-4.277 3.976-4.988 5.53-1.696 3.706-3.924 4.572-6.425 2.496zm-1.254 12.312c-2.06-2.286-2.155-4.89-.258-7.013 2.733-3.057 7.616-1.594 8.373 2.509.875 4.746-4.972 7.991-8.115 4.504z" fill="#fff"/></svg>