<svg xmlns="http://www.w3.org/2000/svg" width="26" height="26"><g fill="#fff" transform="translate(5 -1031.362)"><circle cx="8" cy="1044.362" r="13" fill="#239fdb"/><path style="line-height:normal;text-indent:0;text-align:start;text-decoration-line:none;text-decoration-style:solid;text-decoration-color:#000;text-transform:none;block-progression:tb;isolation:auto;mix-blend-mode:normal" d="M.621 1039.362l-.012.016H.527a.5.5 0 00-.5.5v.232l-.027.035.027.022v8.695a.5.5 0 00.5.5h14.97a.5.5 0 00.501-.5v-8.691l.002-.002-.002-.002v-.29a.5.5 0 00-.502-.5H.641l-.02-.015zm1.281 1.016H14.13l-6.11 4.847-6.117-4.847zm-.877.582l6.686 5.297a.5.5 0 00.62 0l6.665-5.293v7.398H1.026v-7.402z" color="#000" font-family="sans-serif" font-weight="400" overflow="visible"/></g></svg>