<svg xmlns="http://www.w3.org/2000/svg" width="26" height="26" viewBox="0 0 26 26"><g fill="#fff" transform="translate(5 -1031.362)"><circle cx="8" cy="1044.362" r="13" fill="#239fdb"/><path style="line-height:normal;text-indent:0;text-align:start;text-decoration-line:none;text-decoration-style:solid;text-decoration-color:#000;text-transform:none;block-progression:tb;isolation:auto;mix-blend-mode:normal" d="m 0.62109375,3 -0.0117188,0.015625 -0.0820313,0 a 0.50004788,0.50004788 0 0 0 -0.5,0.5 l 0,0.2324219 L 0,3.7832031 l 0.02734375,0.021484 0,8.6953129 a 0.50004788,0.50004788 0 0 0 0.5,0.5 L 15.496094,13 a 0.50004788,0.50004788 0 0 0 0.501953,-0.5 l 0,-8.6914062 0.002,-0.00195 -0.002,-0.00195 0,-0.2890625 a 0.50004788,0.50004788 0 0 0 -0.501953,-0.5 l -14.855469,0 L 0.62109375,3 Z m 1.28125005,1.015625 12.2265622,0 L 8.0195312,8.8632812 1.9023438,4.015625 Z m -0.8769532,0.5820312 6.6855469,5.296875 a 0.50004788,0.50004788 0 0 0 0.6191406,0 l 6.6660159,-5.2929687 0,7.3984375 -13.9707034,0 0,-7.4023438 z" color="#000" font-family="sans-serif" font-weight="400" overflow="visible" transform="translate(0 1036.362)" white-space="normal"/></g></svg>